<svg width="16" height="14" viewBox="0 0 16 14" fill="none" xmlns="http://www.w3.org/2000/svg">
<path d="M0 0.992968C0 0.444567 0.444631 0 1.00087 0H14.9991C15.5519 0 16 0.440346 16 0.992968V1.6737C16 2.2221 15.5554 2.66667 14.9991 2.66667H1.00087C0.448106 2.66667 0 2.22632 0 1.6737V0.992968ZM0 6.3263C0 5.7779 0.444631 5.33333 1.00087 5.33333H14.9991C15.5519 5.33333 16 5.77368 16 6.3263V7.00703C16 7.55543 15.5554 8 14.9991 8H1.00087C0.448106 8 0 7.55965 0 7.00703V6.3263ZM0 11.6596C0 11.1112 0.444631 10.6667 1.00087 10.6667H14.9991C15.5519 10.6667 16 11.107 16 11.6596V12.3404C16 12.8888 15.5554 13.3333 14.9991 13.3333H1.00087C0.448106 13.3333 0 12.893 0 12.3404V11.6596Z" fill="#333333"/>
</svg>
